<svg width="51" height="51" viewBox="0 0 51 51" fill="none" xmlns="http://www.w3.org/2000/svg">
<path d="M25.3827 1.32219C12.0274 1.31881 1.20552 12.1426 1.21125 25.4978C1.21698 38.8531 12.0482 49.6824 25.4034 49.6858C38.7586 49.6891 49.5806 38.8653 49.5748 25.5101C49.5691 12.1549 38.7379 1.32558 25.3827 1.32219Z" fill="#FFE2E2"/>
<path d="M23.8477 1.37007C24.355 1.33747 24.8664 1.32124 25.3819 1.32137C38.7373 1.32475 49.5691 12.1546 49.5748 25.5101C49.5806 38.8655 38.7581 49.6899 25.4026 49.6865C24.8872 49.6864 24.3758 49.6699 23.8685 49.637C36.5096 48.8506 46.512 38.3492 46.5065 25.5093C46.501 12.6693 36.4896 2.16286 23.8477 1.37007Z" fill="#FFEFEE"/>
<path d="M1.20966 25.4977C1.20393 12.1422 12.0264 1.31786 25.3818 1.32125C25.8973 1.32138 26.4087 1.33788 26.916 1.37073C14.2748 2.15711 4.27248 12.6585 4.27799 25.4985C4.2835 38.3384 14.2949 48.8449 26.9367 49.6377C26.4295 49.6703 25.9181 49.6865 25.4026 49.6864C12.0472 49.683 1.21539 38.8531 1.20966 25.4977Z" fill="#FFCFCF"/>
<path d="M15.6611 31.0527L15.5228 31.0527C12.4146 31.0519 9.89359 28.5316 9.89226 25.4231L9.88879 17.3299C9.88745 14.2217 12.4061 11.7024 15.5145 11.7032L20.0364 11.7043C22.6253 11.705 24.9738 12.723 26.7102 14.3783C26.9422 14.6012 27.2528 14.7207 27.5725 14.7208L38.6347 14.7236C39.878 14.7239 40.8862 15.732 40.8868 16.9753L40.8908 26.435C40.8914 27.6782 39.884 28.6858 38.6407 28.6855L26.8761 28.6825C26.5653 28.6825 26.2614 28.7949 26.0298 29.0043C23.765 31.0566 20.3667 36.2636 18.6679 38.7986C18.3214 39.3162 17.6235 39.4533 17.1056 39.1089C14.9193 37.6352 14.7262 35.5378 15.7025 33.9896L16.5446 32.6542C16.9833 31.9593 16.4832 31.0529 15.6611 31.0527Z" fill="#FFBB98"/>
<path d="M14.9539 11.7348C15.1399 11.7115 15.3256 11.704 15.5154 11.704L20.0345 11.7052C22.6252 11.7058 24.9723 12.7249 26.7117 14.3788C26.9403 14.5995 27.2539 14.7197 27.5716 14.7198L38.634 14.7226C39.877 14.7229 40.8843 15.7339 40.8848 16.977L40.8889 26.4333C40.8894 27.6803 39.883 28.6869 38.6399 28.6866L26.8764 28.6836C26.5667 28.6835 26.2607 28.7957 26.0284 29.0047C23.764 31.0565 20.3662 36.264 18.6674 38.8001C18.3229 39.315 17.6222 39.4542 17.107 39.1094C15.5149 38.0363 14.98 36.6343 15.1807 35.3565C16.8216 32.9677 18.7566 30.3272 20.2198 29.0033C20.4521 28.7943 20.7579 28.682 21.0678 28.6821L25.9587 28.6834C27.2018 28.6837 28.2082 27.6771 28.2077 26.4301L28.2036 16.9737C28.2031 15.7307 27.1958 14.7197 25.9527 14.7194L21.7628 14.7183C21.4453 14.7182 21.1315 14.5981 20.9029 14.3773C19.3301 12.8783 17.254 11.9019 14.9539 11.7348Z" fill="#FFCAA6"/>
<path d="M33.4471 28.6849L33.4411 14.7219L38.6333 14.7232C39.8772 14.7235 40.8862 15.7323 40.8867 16.976L40.8908 26.4367C40.8913 27.6783 39.8832 28.6865 38.6393 28.6862L33.4471 28.6849Z" fill="#44C7B6"/>
<path d="M25.3984 50.5049C39.1834 50.5084 50.3936 39.2962 50.3877 25.5112C50.3818 11.7262 39.162 0.508381 25.377 0.504886C11.592 0.501391 0.38179 11.7136 0.387705 25.4986C0.39362 39.2836 11.6134 50.5014 25.3984 50.5049ZM25.3777 2.14131C38.2604 2.14457 48.7458 12.6281 48.7513 25.5108C48.7568 38.3935 38.2805 48.8717 25.3977 48.8685C12.515 48.8652 2.02965 38.3817 2.02413 25.499C2.0186 12.6162 12.495 2.13804 25.3777 2.14131Z" fill="#5F266D"/>
<path d="M15.6555 31.8716C15.8349 31.8717 15.9424 32.0672 15.8473 32.2186L15.0051 33.5537C13.8743 35.3457 13.9425 37.9682 16.6465 39.7894C17.5541 40.3959 18.7562 40.134 19.3409 39.2545C21.1398 36.5641 24.4242 31.5596 26.5688 29.6142C26.65 29.5416 26.7569 29.5016 26.8701 29.5016C28.1694 29.5019 37.3511 29.5043 38.634 29.5046C40.3272 29.505 41.7038 28.1289 41.7031 26.437L41.6991 16.9763C41.6983 15.2834 40.3205 13.9056 38.6274 13.9052C36.302 13.9046 29.7793 13.9029 27.565 13.9024C27.4527 13.9023 27.3459 13.8614 27.2681 13.7867C25.3067 11.9178 22.7362 10.888 20.0299 10.8874L15.5072 10.8862C11.953 10.8853 9.06288 13.776 9.0644 17.3301L9.06787 25.4244C9.06953 28.8045 11.7374 31.8706 15.6555 31.8716ZM34.2549 15.5407L38.6283 15.5418C39.4189 15.542 40.0625 16.1855 40.0628 16.9761L40.0669 26.4368C40.0672 27.2264 39.4242 27.8685 38.6335 27.8683L34.2601 27.8672L34.2549 15.5407ZM10.701 17.3305C10.6999 14.6789 12.8562 12.522 15.5081 12.5227L20.0308 12.5238C22.3149 12.5244 24.4844 13.3935 26.1364 14.9675C26.5183 15.3358 27.0259 15.5387 27.5659 15.5388L32.6184 15.5401L32.6237 27.8666L26.8696 27.8652C26.3535 27.865 25.8589 28.0529 25.4733 28.3981C23.1468 30.5085 19.7358 35.7185 17.98 38.3452C17.8821 38.4926 17.691 38.5198 17.5576 38.4306C15.6463 37.1432 15.701 35.5188 16.3895 34.4275L17.2323 33.0914C17.9598 31.935 17.2724 30.2356 15.5159 30.2351C12.8642 30.2345 10.7059 28.0767 10.7047 25.4248L10.7013 17.3305L10.701 17.3305Z" fill="#5F266D"/>
<path d="M41.4104 34.7417C41.3891 34.7932 39.2107 39.9352 33.1276 42.59C32.7136 42.7708 32.5246 43.253 32.7056 43.6673C32.8869 44.0814 33.3693 44.2707 33.7832 44.09C40.465 41.1737 42.826 35.6022 42.9231 35.3666C43.0954 34.9489 42.8963 34.4704 42.4786 34.2979C42.0602 34.1253 41.5822 34.3249 41.4104 34.7417Z" fill="#5F266D"/>
<path d="M30.3544 43.5366C29.7258 43.6958 29.0725 43.8264 28.4121 43.9244C27.9651 43.9907 27.6568 44.4069 27.7235 44.8539C27.7902 45.3009 28.2054 45.6092 28.6536 45.5431C29.3681 45.4369 30.0761 45.2957 30.7577 45.1228C31.1957 45.0119 31.4606 44.5668 31.3491 44.1286C31.2374 43.6894 30.7909 43.4257 30.3544 43.5366Z" fill="#5F266D"/>
</svg>
