<svg width="41" height="44" viewBox="0 0 41 44" fill="none" xmlns="http://www.w3.org/2000/svg">
<path d="M20.4676 0.71203C9.5361 0.709103 0.678163 10.0643 0.682854 21.6073C0.687545 33.1504 9.55308 42.5103 20.4846 42.5133C31.4161 42.5162 40.274 33.161 40.2693 21.6179C40.2646 10.0749 31.3991 0.714956 20.4676 0.71203Z" fill="#F6A5C9"/>
<path d="M19.2112 0.753388C19.6265 0.725209 20.045 0.711176 20.467 0.711289C31.3986 0.714216 40.2646 10.0746 40.2693 21.6179C40.274 33.1611 31.4156 42.5168 20.484 42.5139C20.062 42.5138 19.6434 42.4995 19.2282 42.4711C29.5752 41.7914 37.7624 32.7149 37.7578 21.6172C37.7533 10.5195 29.5588 1.4386 19.2112 0.753388Z" fill="#F6A5C9"/>
<path d="M0.681632 21.6072C0.676941 10.064 9.53534 0.708321 20.467 0.711247C20.8889 0.71136 21.3075 0.725617 21.7228 0.754018C11.3757 1.43369 3.18861 10.5102 3.19312 21.6079C3.19763 32.7056 11.3921 41.7865 21.7397 42.4717C21.3245 42.4999 20.9059 42.5139 20.484 42.5138C9.55233 42.5109 0.686323 33.1505 0.681632 21.6072Z" fill="#F6A5C9"/>
<path d="M12.5105 26.4085L12.3973 26.4084C9.85316 26.4078 7.78967 24.2294 7.78858 21.5427L7.78574 14.5477C7.78465 11.8612 9.8462 9.68374 12.3905 9.68442L16.0918 9.68541C18.2108 9.68598 20.1331 10.5659 21.5544 11.9966C21.7443 12.1892 21.9985 12.2925 22.2602 12.2926L31.3148 12.295C32.3324 12.2953 33.1577 13.1666 33.1582 14.2412L33.1615 22.4173C33.1619 23.4919 32.3373 24.3627 31.3197 24.3625L21.6901 24.3599C21.4358 24.3598 21.187 24.457 20.9974 24.638C19.1437 26.4118 16.3621 30.9122 14.9716 33.1033C14.688 33.5507 14.1168 33.6692 13.6929 33.3715C11.9033 32.0977 11.7452 30.285 12.5443 28.9468L13.2337 27.7927C13.5927 27.192 13.1834 26.4087 12.5105 26.4085Z" fill="#FFBB98"/>
<path d="M11.9318 9.71176C12.084 9.69165 12.236 9.68515 12.3914 9.68519L16.0903 9.68618C18.2108 9.68675 20.132 10.5675 21.5557 11.997C21.7428 12.1878 21.9995 12.2917 22.2596 12.2917L31.3143 12.2942C32.3318 12.2944 33.1563 13.1682 33.1567 14.2426L33.16 22.4159C33.1605 23.4937 32.3367 24.3637 31.3192 24.3634L21.6905 24.3608C21.437 24.3608 21.1866 24.4578 20.9965 24.6384C19.143 26.4117 16.3618 30.9127 14.9713 33.1046C14.6894 33.5497 14.1158 33.67 13.6941 33.3719C12.3909 32.4445 11.9531 31.2327 12.1174 30.1283C13.4605 28.0636 15.0444 25.7814 16.242 24.6371C16.4322 24.4565 16.6824 24.3595 16.9361 24.3596L20.9394 24.3606C21.9569 24.3609 22.7807 23.4909 22.7802 22.4131L22.7769 14.2399C22.7765 13.1654 21.952 12.2917 20.9345 12.2914L17.505 12.2905C17.2451 12.2904 16.9883 12.1865 16.8011 11.9957C15.5137 10.7001 13.8145 9.85618 11.9318 9.71176Z" fill="#FFCAA6"/>
<path d="M27.0685 24.3619L27.0636 12.2935L31.3136 12.2947C32.3317 12.2949 33.1576 13.1668 33.158 14.2417L33.1613 22.4187C33.1618 23.4919 32.3366 24.3633 31.3185 24.363L27.0685 24.3619Z" fill="#44C7B6"/>
<path d="M20.4804 43.2211C31.7637 43.2241 40.9394 33.5333 40.9346 21.6188C40.9297 9.70421 31.7461 0.00848447 20.4628 0.00546391C9.17955 0.00244335 0.00380511 9.69325 0.00864696 21.6078C0.0134888 33.5223 9.19712 43.2181 20.4804 43.2211ZM20.4634 1.41984C31.0082 1.42267 39.5906 10.4837 39.5951 21.6184C39.5997 32.7531 31.0246 41.8095 20.4798 41.8067C9.93507 41.8039 1.35261 32.7428 1.34809 21.6082C1.34356 10.4735 9.91866 1.41702 20.4634 1.41984Z" fill="#5F266D"/>
<path d="M12.5058 27.1162C12.6526 27.1163 12.7406 27.2853 12.6628 27.4161L11.9734 28.5701C11.0478 30.1189 11.1037 32.3855 13.3169 33.9596C14.0599 34.4839 15.0438 34.2575 15.5223 33.4974C16.9948 31.172 19.6832 26.8466 21.4385 25.1651C21.505 25.1024 21.5925 25.0678 21.6851 25.0678C22.7486 25.0681 30.264 25.0701 31.3142 25.0704C32.7 25.0707 33.8268 23.8814 33.8262 22.419L33.8229 14.242C33.8223 12.7788 32.6945 11.588 31.3087 11.5876C29.4053 11.5871 24.0664 11.5857 22.2539 11.5852C22.162 11.5852 22.0746 11.5498 22.0109 11.4852C20.4054 9.8699 18.3015 8.97986 16.0863 8.97927L12.3844 8.97828C9.47525 8.9775 7.10961 11.4759 7.11086 14.5478L7.1137 21.5438C7.11506 24.4652 9.29878 27.1154 12.5058 27.1162ZM27.7297 13.0012L31.3094 13.0022C31.9566 13.0024 32.4834 13.5585 32.4836 14.2419L32.487 22.4189C32.4872 23.1013 31.9609 23.6563 31.3138 23.6561L27.734 23.6552L27.7297 13.0012ZM8.45048 14.5482C8.44955 12.2563 10.2145 10.3921 12.3851 10.3927L16.0871 10.3937C17.9566 10.3942 19.7324 11.1453 21.0846 12.5058C21.3972 12.8241 21.8126 12.9995 22.2547 12.9996L26.3903 13.0007L26.3946 23.6547L21.6847 23.6534C21.2623 23.6533 20.8575 23.8157 20.5418 24.114C18.6375 25.9381 15.8456 30.4411 14.4084 32.7114C14.3283 32.8388 14.1719 32.8623 14.0627 32.7852C12.4983 31.6725 12.5431 30.2686 13.1066 29.3253L13.7965 28.1705C14.3919 27.171 13.8293 25.7022 12.3915 25.7018C10.2211 25.7012 8.45443 23.8362 8.4535 21.5442L8.45065 14.5482L8.45048 14.5482Z" fill="#5F266D"/>
<path d="M33.5863 29.5968C33.5689 29.6413 31.7858 34.0856 26.8067 36.3802C26.4678 36.5364 26.3131 36.9533 26.4613 37.3113C26.6096 37.6692 27.0045 37.8328 27.3433 37.6766C32.8125 35.1561 34.745 30.3405 34.8245 30.1369C34.9655 29.7759 34.8026 29.3623 34.4606 29.2132C34.1181 29.0641 33.7269 29.2365 33.5863 29.5968Z" fill="#5F266D"/>
<path d="M24.5371 37.1985C24.0226 37.3361 23.4878 37.4489 22.9473 37.5336C22.5814 37.591 22.3291 37.9507 22.3836 38.337C22.4382 38.7234 22.7781 38.9899 23.1449 38.9327C23.7298 38.8409 24.3093 38.7189 24.8672 38.5695C25.2257 38.4736 25.4425 38.0889 25.3513 37.7102C25.2599 37.3306 24.8944 37.1026 24.5371 37.1985Z" fill="#5F266D"/>
</svg>
