<svg width="42" height="44" viewBox="0 0 42 44" fill="none" xmlns="http://www.w3.org/2000/svg">
<path d="M21.3736 42.9619C32.3039 42.7895 41.0263 33.2933 40.8556 21.7517C40.6848 10.21 31.6857 0.993346 20.7554 1.16575C9.8251 1.33815 1.10276 10.8343 1.27349 22.376C1.44421 33.9177 10.4434 43.1343 21.3736 42.9619Z" fill="#F6A5C9"/>
<path d="M22.6293 42.9004C22.2145 42.9352 21.7962 42.956 21.3743 42.9626C10.4439 43.135 1.44423 33.9179 1.2735 22.376C1.10276 10.8342 9.82557 1.33753 20.756 1.16513C21.1779 1.15847 21.5967 1.16601 22.0123 1.18775C11.6762 2.0333 3.62056 11.24 3.7847 22.3364C3.94884 33.4328 12.273 42.3812 22.6293 42.9004Z" fill="#F6A5C9"/>
<path d="M40.8569 21.7521C41.0276 33.2939 32.3048 42.7906 21.3744 42.963C20.9525 42.9696 20.5337 42.9621 20.1181 42.9404C30.4542 42.0948 38.5098 32.8881 38.3457 21.7917C38.1816 10.6953 29.8574 1.74691 19.5011 1.22773C19.9159 1.1929 20.3342 1.17215 20.7561 1.1655C31.6865 0.993095 40.6862 10.2102 40.8569 21.7521Z" fill="#F6A5C9"/>
<path d="M28.9603 17.1405L29.0735 17.1387C31.6174 17.0986 33.7119 19.2436 33.7517 21.93L33.8551 28.9242C33.8949 31.6103 31.8649 33.8206 29.3209 33.8607L25.62 33.9191C23.5012 33.9525 21.5665 33.1035 20.1248 31.6958C19.9321 31.5063 19.6764 31.4071 19.4148 31.4112L10.3612 31.554C9.34366 31.57 8.50593 30.7121 8.49004 29.6376L8.36911 21.4625C8.35321 20.388 9.16518 19.504 10.1827 19.488L19.8112 19.3361C20.0655 19.3321 20.3128 19.2309 20.4998 19.0469C22.3279 17.2435 25.0444 12.699 26.4032 10.4859C26.6803 10.034 27.2498 9.9064 27.6779 10.1972C29.4856 11.4422 29.6697 13.2522 28.89 14.603L28.2173 15.7681C27.8669 16.3744 28.2875 17.1511 28.9603 17.1405Z" fill="#FFBB98"/>
<path d="M29.7791 33.826C29.6272 33.8486 29.4753 33.8575 29.32 33.86L25.6215 33.9183C23.5012 33.9518 21.5676 33.1019 20.1234 31.6954C19.9336 31.5076 19.6754 31.4079 19.4154 31.412L10.3617 31.5548C9.34431 31.5709 8.50737 30.7104 8.49148 29.6361L8.3706 21.4638C8.35466 20.3862 9.1658 19.5031 10.1832 19.487L19.8108 19.3352C20.0643 19.3312 20.3133 19.2302 20.5008 19.0465C22.3285 17.2437 25.0447 12.6986 26.4035 10.4847C26.679 10.0351 27.2507 9.90564 27.6767 10.1969C28.9931 11.1033 29.4483 12.3079 29.2999 13.4148C27.9866 15.5008 26.4358 17.8082 25.2547 18.9715C25.0672 19.1552 24.8183 19.2562 24.5647 19.2602L20.5618 19.3233C19.5445 19.3394 18.7333 20.2225 18.7493 21.3001L18.8701 29.4724C18.886 30.5467 19.723 31.4072 20.7403 31.3911L24.1695 31.337C24.4293 31.3329 24.6877 31.4327 24.8775 31.6204C26.1834 32.8952 27.8946 33.7118 29.7791 33.826Z" fill="#FFCAA6"/>
<path d="M14.4325 19.4204L14.611 31.4873L10.3621 31.5543C9.34418 31.5704 8.50594 30.7119 8.49004 29.637L8.3691 21.461C8.35322 20.388 9.16568 19.5035 10.1836 19.4874L14.4325 19.4204Z" fill="#44C7B6"/>
<path d="M20.7493 0.457797C9.46724 0.635745 0.431942 10.4726 0.608164 22.3857C0.784385 34.2988 10.1064 43.8461 21.3884 43.6681C32.6705 43.4902 41.7058 33.6533 41.5295 21.7403C41.3533 9.82716 32.0313 0.279848 20.7493 0.457797ZM21.3675 42.2539C10.8239 42.4202 2.11214 33.4979 1.94745 22.3646C1.78277 11.2312 10.2266 2.0383 20.7702 1.872C31.3137 1.7057 40.0256 10.628 40.1902 21.7614C40.3549 32.8947 31.9111 42.0876 21.3675 42.2539Z" fill="#5F266D"/>
<path d="M28.9547 16.4329C28.8079 16.4352 28.7175 16.2676 28.7934 16.1356L29.4661 14.9707C30.3693 13.4071 30.2809 11.1417 28.0452 9.60327C27.2948 9.09101 26.3143 9.33316 25.8467 10.1009C24.4079 12.4496 21.782 16.8176 20.0511 18.527C19.9855 18.5908 19.8985 18.6269 19.8059 18.6283C18.7425 18.6451 11.228 18.7636 10.1779 18.7802C8.79225 18.802 7.68265 20.0093 7.70427 21.4715L7.82522 29.6475C7.84686 31.1105 8.99167 32.2831 10.3774 32.2613C12.2805 32.2313 17.6188 32.1471 19.4311 32.1185C19.523 32.117 19.6109 32.151 19.6755 32.2145C21.304 33.8039 23.4206 34.6601 25.6355 34.6252L29.337 34.5668C32.2458 34.5209 34.5752 31.9848 34.5298 28.9133L34.4263 21.9182C34.383 18.9971 32.1614 16.3823 28.9547 16.4329ZM13.9356 30.7904L10.3563 30.8469C9.70921 30.8571 9.17446 30.3094 9.16436 29.6262L9.04342 21.4502C9.03332 20.7678 9.55163 20.2044 10.1987 20.1942L13.778 20.1378L13.9356 30.7904ZM33.1903 28.9344C33.2242 31.226 31.4863 33.1183 29.3159 33.1526L25.6144 33.211C23.745 33.2404 21.9587 32.5178 20.587 31.1792C20.2699 30.8659 19.852 30.6973 19.41 30.7043L15.2749 30.7695L15.1173 20.1168L19.8267 20.0425C20.249 20.0359 20.6515 19.867 20.9628 19.5637C22.8406 17.7093 25.5675 13.1619 26.9718 10.8689C27.0501 10.7402 27.2061 10.7142 27.3164 10.7895C28.8967 11.877 28.8721 13.2815 28.3222 14.2337L27.649 15.3995C27.068 16.4084 27.6517 17.868 29.0893 17.8453C31.2595 17.8111 33.0528 19.6476 33.0867 21.9393L33.1902 28.9344L33.1903 28.9344Z" fill="#5F266D"/>
<path d="M7.84026 14.2907C7.85702 14.2459 9.57591 9.77355 14.5215 7.39936C14.858 7.23775 15.0067 6.81846 14.8534 6.46282C14.7 6.10736 14.3028 5.95006 13.9663 6.11168C8.534 8.71969 6.67093 13.5656 6.59442 13.7705C6.45863 14.1337 6.62747 14.5447 6.97154 14.6883C7.3161 14.8319 7.7048 14.6532 7.84026 14.2907Z" fill="#5F266D"/>
<path d="M16.7798 6.54512C17.2922 6.39929 17.8252 6.2779 18.3644 6.18452C18.7293 6.1213 18.9765 5.75757 18.9164 5.37217C18.8562 4.98677 18.5126 4.72572 18.1467 4.78878C17.5632 4.88993 16.9856 5.02122 16.43 5.17958C16.073 5.28122 15.8617 5.66931 15.9584 6.04653C16.0553 6.42464 16.4239 6.64674 16.7798 6.54512Z" fill="#5F266D"/>
</svg>
