<svg width="51" height="51" viewBox="0 0 51 51" fill="none" xmlns="http://www.w3.org/2000/svg">
<path d="M25.7601 49.6847C39.1139 49.4853 49.7701 38.4983 49.5615 25.1447C49.353 11.7911 38.3585 1.1276 25.0048 1.32707C11.651 1.52653 0.994772 12.5135 1.20335 25.8671C1.41193 39.2207 12.4064 49.8842 25.7601 49.6847Z" fill="#FFE2E2"/>
<path d="M27.2941 49.6136C26.7874 49.6539 26.2763 49.6779 25.7609 49.6856C12.407 49.885 1.41195 39.2209 1.20337 25.8671C0.994781 12.5133 11.6516 1.52579 25.0056 1.32632C25.521 1.31863 26.0326 1.32735 26.5403 1.3525C13.9125 2.33079 4.07082 12.9829 4.27136 25.8213C4.47189 38.6597 14.6417 49.0129 27.2941 49.6136Z" fill="#FFEFEE"/>
<path d="M49.5632 25.1451C49.7718 38.4989 39.115 49.4865 25.761 49.6859C25.2456 49.6936 24.734 49.6849 24.2263 49.6598C36.8541 48.6815 46.6958 38.0294 46.4952 25.191C46.2947 12.3526 36.1249 1.99938 23.4724 1.3987C23.9792 1.3584 24.4903 1.33439 25.0057 1.3267C38.3596 1.12723 49.3546 11.7913 49.5632 25.1451Z" fill="#FFCFCF"/>
<path d="M35.0291 19.8098L35.1673 19.8078C38.2752 19.7614 40.8342 22.2431 40.8828 25.3512L41.0092 33.4434C41.0577 36.5513 38.5776 39.1085 35.4695 39.1549L30.9481 39.2225C28.3596 39.2611 25.9958 38.2789 24.2345 36.6501C23.9991 36.4309 23.6868 36.3161 23.3671 36.3208L12.3062 36.4861C11.063 36.5046 10.0395 35.512 10.0201 34.2688L9.87238 24.8103C9.85296 23.5672 10.845 22.5444 12.0881 22.5258L23.8514 22.3501C24.1621 22.3455 24.4643 22.2284 24.6927 22.0155C26.9261 19.929 30.2449 14.6711 31.905 12.1106C32.2436 11.5877 32.9393 11.44 33.4623 11.7765C35.6708 13.2169 35.8958 15.3111 34.9431 16.874L34.1213 18.222C33.6932 18.9235 34.2071 19.8221 35.0291 19.8098Z" fill="#FFBB98"/>
<path d="M36.0296 39.1149C35.844 39.141 35.6584 39.1513 35.4686 39.1541L30.9501 39.2216C28.3597 39.2603 25.9974 38.277 24.233 36.6498C24.0011 36.4325 23.6857 36.3171 23.368 36.3218L12.3069 36.4871C11.064 36.5056 10.0415 35.5101 10.0221 34.2672L9.87436 24.8119C9.85489 23.5651 10.8459 22.5434 12.0888 22.5248L23.8511 22.3491C24.1608 22.3445 24.465 22.2276 24.6941 22.0151C26.927 19.9292 30.2454 14.6707 31.9055 12.1091C32.2421 11.589 32.9406 11.4392 33.461 11.7761C35.0692 12.8249 35.6254 14.2186 35.4441 15.4993C33.8396 17.9128 31.9449 20.5824 30.502 21.9284C30.2729 22.1409 29.9689 22.2577 29.659 22.2623L24.7686 22.3354C23.5257 22.354 22.5347 23.3757 22.5542 24.6225L22.7019 34.0778C22.7213 35.3207 23.7438 36.3162 24.9867 36.2977L29.1762 36.2351C29.4936 36.2304 29.8092 36.3457 30.0411 36.563C31.6366 38.0379 33.7272 38.9827 36.0296 39.1149Z" fill="#FFCAA6"/>
<path d="M17.2801 22.4477L17.4982 36.4089L12.3071 36.4865C11.0636 36.505 10.0395 35.5118 10.0201 34.2682L9.8723 24.8087C9.85291 23.5672 10.8455 22.5438 12.0891 22.5252L17.2801 22.4477Z" fill="#44C7B6"/>
<path d="M24.9972 0.507963C11.2138 0.713847 0.175155 12.095 0.390449 25.8783C0.605742 39.6616 11.9946 50.7078 25.7781 50.5019C39.5616 50.296 50.6002 38.9149 50.3849 25.1315C50.1696 11.3482 38.7807 0.302079 24.9972 0.507963ZM25.7526 48.8657C12.8713 49.0581 2.22789 38.735 2.02669 25.8539C1.82548 12.9727 12.1415 2.33659 25.0228 2.14418C37.9041 1.95178 48.5474 12.2748 48.7486 25.156C48.9498 38.0371 38.6338 48.6732 25.7526 48.8657Z" fill="#5F266D"/>
<path d="M35.0218 18.991C34.8424 18.9937 34.732 18.7997 34.8247 18.647L35.6465 17.2992C36.75 15.4902 36.642 12.8691 33.9107 11.0892C32.9939 10.4965 31.7959 10.7767 31.2247 11.6649C29.4668 14.3824 26.2588 19.4361 24.144 21.4139C24.064 21.4877 23.9576 21.5294 23.8445 21.5311C22.5453 21.5505 13.3647 21.6876 12.0818 21.7068C10.3889 21.732 9.0333 23.1289 9.05972 24.8206L9.20748 34.2801C9.23392 35.9728 10.6326 37.3296 12.3255 37.3043C14.6506 37.2695 21.1725 37.1721 23.3866 37.1391C23.4989 37.1374 23.6063 37.1767 23.6852 37.2502C25.6748 39.0891 28.2606 40.0797 30.9666 40.0393L35.4888 39.9717C39.0426 39.9186 41.8885 36.9844 41.833 33.4307L41.7066 25.3374C41.6536 21.9577 38.9394 18.9325 35.0218 18.991ZM16.6726 35.6025L12.2997 35.6678C11.5092 35.6796 10.8559 35.046 10.8435 34.2555L10.6958 24.7959C10.6834 24.0064 11.3167 23.3546 12.1072 23.3428L16.4801 23.2775L16.6726 35.6025ZM40.1965 33.4551C40.2379 36.1065 38.1146 38.2959 35.4631 38.3355L30.9408 38.403C28.657 38.4371 26.4746 37.6011 24.7988 36.0523C24.4114 35.6899 23.9008 35.4947 23.3608 35.5028L18.3089 35.5783L18.1164 23.2532L23.8699 23.1673C24.3859 23.1596 24.8775 22.9642 25.2579 22.6132C27.5521 20.4677 30.8835 15.2065 32.5992 12.5535C32.6949 12.4046 32.8855 12.3745 33.0203 12.4617C34.9509 13.7199 34.9209 15.3449 34.249 16.4465L33.4266 17.7953C32.7167 18.9626 33.4299 20.6514 35.1862 20.6252C37.8376 20.5856 40.0285 22.7103 40.0699 25.3619L40.1963 33.4551L40.1965 33.4551Z" fill="#5F266D"/>
<path d="M9.22618 16.5125C9.24664 16.4607 11.3466 11.2862 17.3888 8.5393C17.7999 8.35231 17.9816 7.86721 17.7943 7.45573C17.6068 7.04447 17.1216 6.86248 16.7104 7.04947C10.0737 10.0669 7.79758 15.6736 7.70411 15.9107C7.53821 16.3309 7.74449 16.8063 8.16484 16.9725C8.5858 17.1387 9.06068 16.9319 9.22618 16.5125Z" fill="#5F266D"/>
<path d="M20.1478 7.55092C20.7738 7.3822 21.425 7.24175 22.0837 7.13371C22.5296 7.06057 22.8315 6.63974 22.7581 6.19383C22.6846 5.74793 22.2648 5.4459 21.8177 5.51886C21.105 5.63589 20.3993 5.78779 19.7205 5.971C19.2843 6.0886 19.0262 6.53762 19.1443 6.97406C19.2626 7.41153 19.713 7.6685 20.1478 7.55092Z" fill="#5F266D"/>
</svg>
